<mxfile host="app.diagrams.net" modified="2023-04-24T10:13:43.404Z" agent="Mozilla/5.0 (X11; Ubuntu; Linux x86_64; rv:88.0) Gecko/20100101 Firefox/88.0" etag="M-OuZPxuyewh6z3EqskC" version="21.2.1" type="google">
  <diagram name="Page-1" id="2YBvvXClWsGukQMizWep">
    <mxGraphModel grid="1" page="1" gridSize="10" guides="1" tooltips="1" connect="1" arrows="1" fold="1" pageScale="1" pageWidth="850" pageHeight="1100" math="0" shadow="0">
      <root>
        <mxCell id="0" />
        <mxCell id="1" parent="0" />
        <mxCell id="YZprFVQo6bopOj7Zki63-2" value="" style="ellipse;html=1;shape=startState;fillColor=#000000;strokeColor=#ff0000;" vertex="1" parent="1">
          <mxGeometry x="120" y="95" width="30" height="30" as="geometry" />
        </mxCell>
        <mxCell id="YZprFVQo6bopOj7Zki63-3" value="" style="edgeStyle=orthogonalEdgeStyle;html=1;verticalAlign=bottom;endArrow=open;endSize=8;strokeColor=#ff0000;rounded=0;entryX=0;entryY=0.5;entryDx=0;entryDy=0;" edge="1" parent="1" source="YZprFVQo6bopOj7Zki63-2" target="YZprFVQo6bopOj7Zki63-4">
          <mxGeometry relative="1" as="geometry">
            <mxPoint x="220" y="105" as="targetPoint" />
          </mxGeometry>
        </mxCell>
        <mxCell id="CgbZnJTE79zO5SIM5HPh-2" value="" style="edgeStyle=orthogonalEdgeStyle;rounded=0;orthogonalLoop=1;jettySize=auto;html=1;" edge="1" parent="1" source="YZprFVQo6bopOj7Zki63-4" target="CgbZnJTE79zO5SIM5HPh-1">
          <mxGeometry relative="1" as="geometry" />
        </mxCell>
        <mxCell id="YZprFVQo6bopOj7Zki63-4" value="Login to TRACE" style="rounded=1;whiteSpace=wrap;html=1;" vertex="1" parent="1">
          <mxGeometry x="360" y="80" width="120" height="60" as="geometry" />
        </mxCell>
        <mxCell id="CgbZnJTE79zO5SIM5HPh-5" value="" style="edgeStyle=orthogonalEdgeStyle;rounded=0;orthogonalLoop=1;jettySize=auto;html=1;" edge="1" parent="1" source="CgbZnJTE79zO5SIM5HPh-1" target="CgbZnJTE79zO5SIM5HPh-4">
          <mxGeometry relative="1" as="geometry" />
        </mxCell>
        <mxCell id="CgbZnJTE79zO5SIM5HPh-12" value="" style="edgeStyle=orthogonalEdgeStyle;rounded=0;orthogonalLoop=1;jettySize=auto;html=1;" edge="1" parent="1" source="CgbZnJTE79zO5SIM5HPh-1" target="CgbZnJTE79zO5SIM5HPh-11">
          <mxGeometry relative="1" as="geometry" />
        </mxCell>
        <mxCell id="CgbZnJTE79zO5SIM5HPh-16" value="" style="edgeStyle=orthogonalEdgeStyle;rounded=0;orthogonalLoop=1;jettySize=auto;html=1;" edge="1" parent="1" source="CgbZnJTE79zO5SIM5HPh-1" target="CgbZnJTE79zO5SIM5HPh-15">
          <mxGeometry relative="1" as="geometry" />
        </mxCell>
        <mxCell id="CgbZnJTE79zO5SIM5HPh-22" value="" style="edgeStyle=orthogonalEdgeStyle;rounded=0;orthogonalLoop=1;jettySize=auto;html=1;" edge="1" parent="1" source="CgbZnJTE79zO5SIM5HPh-1" target="CgbZnJTE79zO5SIM5HPh-21">
          <mxGeometry relative="1" as="geometry" />
        </mxCell>
        <mxCell id="CgbZnJTE79zO5SIM5HPh-26" value="" style="edgeStyle=orthogonalEdgeStyle;rounded=0;orthogonalLoop=1;jettySize=auto;html=1;" edge="1" parent="1" source="CgbZnJTE79zO5SIM5HPh-1" target="CgbZnJTE79zO5SIM5HPh-25">
          <mxGeometry relative="1" as="geometry" />
        </mxCell>
        <mxCell id="CgbZnJTE79zO5SIM5HPh-1" value="&lt;div&gt;Check User level&lt;/div&gt;&lt;div&gt;and access permissions&lt;br&gt;&lt;/div&gt;" style="whiteSpace=wrap;html=1;rounded=1;" vertex="1" parent="1">
          <mxGeometry x="360" y="220" width="120" height="60" as="geometry" />
        </mxCell>
        <mxCell id="CgbZnJTE79zO5SIM5HPh-8" value="" style="edgeStyle=orthogonalEdgeStyle;rounded=0;orthogonalLoop=1;jettySize=auto;html=1;" edge="1" parent="1" source="CgbZnJTE79zO5SIM5HPh-4" target="CgbZnJTE79zO5SIM5HPh-7">
          <mxGeometry relative="1" as="geometry" />
        </mxCell>
        <mxCell id="CgbZnJTE79zO5SIM5HPh-4" value="Check Permission" style="rhombus;whiteSpace=wrap;html=1;rounded=1;" vertex="1" parent="1">
          <mxGeometry x="380" y="360" width="80" height="80" as="geometry" />
        </mxCell>
        <mxCell id="CgbZnJTE79zO5SIM5HPh-33" style="edgeStyle=orthogonalEdgeStyle;rounded=0;orthogonalLoop=1;jettySize=auto;html=1;exitX=0.5;exitY=1;exitDx=0;exitDy=0;" edge="1" parent="1" source="CgbZnJTE79zO5SIM5HPh-7">
          <mxGeometry relative="1" as="geometry">
            <mxPoint x="420" y="670" as="targetPoint" />
          </mxGeometry>
        </mxCell>
        <mxCell id="CgbZnJTE79zO5SIM5HPh-7" value="Upload Certificate" style="whiteSpace=wrap;html=1;rounded=1;" vertex="1" parent="1">
          <mxGeometry x="360" y="520" width="120" height="60" as="geometry" />
        </mxCell>
        <mxCell id="CgbZnJTE79zO5SIM5HPh-14" value="" style="edgeStyle=orthogonalEdgeStyle;rounded=0;orthogonalLoop=1;jettySize=auto;html=1;" edge="1" parent="1" source="CgbZnJTE79zO5SIM5HPh-11" target="CgbZnJTE79zO5SIM5HPh-13">
          <mxGeometry relative="1" as="geometry" />
        </mxCell>
        <mxCell id="CgbZnJTE79zO5SIM5HPh-11" value="Check Permission" style="rhombus;whiteSpace=wrap;html=1;rounded=1;" vertex="1" parent="1">
          <mxGeometry x="240" y="360" width="80" height="80" as="geometry" />
        </mxCell>
        <mxCell id="CgbZnJTE79zO5SIM5HPh-31" style="edgeStyle=orthogonalEdgeStyle;rounded=0;orthogonalLoop=1;jettySize=auto;html=1;exitX=0.5;exitY=1;exitDx=0;exitDy=0;" edge="1" parent="1" source="CgbZnJTE79zO5SIM5HPh-13">
          <mxGeometry relative="1" as="geometry">
            <mxPoint x="280" y="670" as="targetPoint" />
          </mxGeometry>
        </mxCell>
        <mxCell id="CgbZnJTE79zO5SIM5HPh-13" value="View Status" style="whiteSpace=wrap;html=1;rounded=1;" vertex="1" parent="1">
          <mxGeometry x="220" y="520" width="120" height="60" as="geometry" />
        </mxCell>
        <mxCell id="CgbZnJTE79zO5SIM5HPh-18" value="" style="edgeStyle=orthogonalEdgeStyle;rounded=0;orthogonalLoop=1;jettySize=auto;html=1;" edge="1" parent="1" source="CgbZnJTE79zO5SIM5HPh-15" target="CgbZnJTE79zO5SIM5HPh-17">
          <mxGeometry relative="1" as="geometry" />
        </mxCell>
        <mxCell id="CgbZnJTE79zO5SIM5HPh-15" value="Check Permission" style="rhombus;whiteSpace=wrap;html=1;rounded=1;" vertex="1" parent="1">
          <mxGeometry x="520" y="360" width="80" height="80" as="geometry" />
        </mxCell>
        <mxCell id="CgbZnJTE79zO5SIM5HPh-34" style="edgeStyle=orthogonalEdgeStyle;rounded=0;orthogonalLoop=1;jettySize=auto;html=1;exitX=0.5;exitY=1;exitDx=0;exitDy=0;" edge="1" parent="1" source="CgbZnJTE79zO5SIM5HPh-17">
          <mxGeometry relative="1" as="geometry">
            <mxPoint x="560" y="670" as="targetPoint" />
          </mxGeometry>
        </mxCell>
        <mxCell id="CgbZnJTE79zO5SIM5HPh-17" value="Update Info" style="whiteSpace=wrap;html=1;rounded=1;" vertex="1" parent="1">
          <mxGeometry x="500" y="520" width="120" height="60" as="geometry" />
        </mxCell>
        <mxCell id="CgbZnJTE79zO5SIM5HPh-24" value="" style="edgeStyle=orthogonalEdgeStyle;rounded=0;orthogonalLoop=1;jettySize=auto;html=1;" edge="1" parent="1" source="CgbZnJTE79zO5SIM5HPh-21" target="CgbZnJTE79zO5SIM5HPh-23">
          <mxGeometry relative="1" as="geometry" />
        </mxCell>
        <mxCell id="CgbZnJTE79zO5SIM5HPh-21" value="Check Permission" style="rhombus;whiteSpace=wrap;html=1;rounded=1;" vertex="1" parent="1">
          <mxGeometry x="680" y="360" width="80" height="80" as="geometry" />
        </mxCell>
        <mxCell id="CgbZnJTE79zO5SIM5HPh-32" style="edgeStyle=orthogonalEdgeStyle;rounded=0;orthogonalLoop=1;jettySize=auto;html=1;exitX=0.5;exitY=1;exitDx=0;exitDy=0;entryX=0.5;entryY=0;entryDx=0;entryDy=0;" edge="1" parent="1" source="CgbZnJTE79zO5SIM5HPh-23" target="CgbZnJTE79zO5SIM5HPh-29">
          <mxGeometry relative="1" as="geometry" />
        </mxCell>
        <mxCell id="CgbZnJTE79zO5SIM5HPh-23" value="Manage Registration" style="whiteSpace=wrap;html=1;rounded=1;" vertex="1" parent="1">
          <mxGeometry x="660" y="520" width="120" height="60" as="geometry" />
        </mxCell>
        <mxCell id="CgbZnJTE79zO5SIM5HPh-28" value="" style="edgeStyle=orthogonalEdgeStyle;rounded=0;orthogonalLoop=1;jettySize=auto;html=1;" edge="1" parent="1" source="CgbZnJTE79zO5SIM5HPh-25" target="CgbZnJTE79zO5SIM5HPh-27">
          <mxGeometry relative="1" as="geometry" />
        </mxCell>
        <mxCell id="CgbZnJTE79zO5SIM5HPh-25" value="Check Permission" style="rhombus;whiteSpace=wrap;html=1;rounded=1;" vertex="1" parent="1">
          <mxGeometry x="95" y="360" width="80" height="80" as="geometry" />
        </mxCell>
        <mxCell id="CgbZnJTE79zO5SIM5HPh-30" style="edgeStyle=orthogonalEdgeStyle;rounded=0;orthogonalLoop=1;jettySize=auto;html=1;exitX=0.5;exitY=1;exitDx=0;exitDy=0;entryX=0.5;entryY=0;entryDx=0;entryDy=0;" edge="1" parent="1" source="CgbZnJTE79zO5SIM5HPh-27" target="CgbZnJTE79zO5SIM5HPh-29">
          <mxGeometry relative="1" as="geometry" />
        </mxCell>
        <mxCell id="CgbZnJTE79zO5SIM5HPh-27" value="Verify and Validate certificate" style="whiteSpace=wrap;html=1;rounded=1;" vertex="1" parent="1">
          <mxGeometry x="75" y="520" width="120" height="60" as="geometry" />
        </mxCell>
        <mxCell id="CgbZnJTE79zO5SIM5HPh-36" style="edgeStyle=orthogonalEdgeStyle;rounded=0;orthogonalLoop=1;jettySize=auto;html=1;exitX=1;exitY=0.5;exitDx=0;exitDy=0;entryX=0;entryY=0.5;entryDx=0;entryDy=0;" edge="1" parent="1" source="CgbZnJTE79zO5SIM5HPh-29" target="CgbZnJTE79zO5SIM5HPh-35">
          <mxGeometry relative="1" as="geometry" />
        </mxCell>
        <mxCell id="CgbZnJTE79zO5SIM5HPh-29" value="Logout" style="rounded=1;whiteSpace=wrap;html=1;" vertex="1" parent="1">
          <mxGeometry x="360" y="760" width="120" height="60" as="geometry" />
        </mxCell>
        <mxCell id="CgbZnJTE79zO5SIM5HPh-35" value="" style="ellipse;html=1;shape=endState;fillColor=#000000;strokeColor=#ff0000;" vertex="1" parent="1">
          <mxGeometry x="590" y="775" width="30" height="30" as="geometry" />
        </mxCell>
        <mxCell id="CgbZnJTE79zO5SIM5HPh-37" value="Start" style="text;html=1;strokeColor=none;fillColor=none;align=center;verticalAlign=middle;whiteSpace=wrap;rounded=0;" vertex="1" parent="1">
          <mxGeometry x="105" y="70" width="60" height="30" as="geometry" />
        </mxCell>
        <mxCell id="CgbZnJTE79zO5SIM5HPh-38" value="End" style="text;html=1;strokeColor=none;fillColor=none;align=center;verticalAlign=middle;whiteSpace=wrap;rounded=0;" vertex="1" parent="1">
          <mxGeometry x="580" y="805" width="60" height="30" as="geometry" />
        </mxCell>
      </root>
    </mxGraphModel>
  </diagram>
</mxfile>
